<?xml version="1.0" standalone="no"?>
<!DOCTYPE svg PUBLIC "-//W3C//DTD SVG 20010904//EN"
 "http://www.w3.org/TR/2001/REC-SVG-20010904/DTD/svg10.dtd">
<svg version="1.0" xmlns="http://www.w3.org/2000/svg"
 width="124.000000pt" height="124.000000pt" viewBox="0 0 124.000000 124.000000"
 preserveAspectRatio="xMidYMid meet">
<metadata>
Created by potrace 1.11, written by Peter Selinger 2001-2013
</metadata>
<g transform="translate(0.000000,124.000000) scale(0.100000,-0.100000)"
fill="#000000" stroke="none">
<path d="M5 1228 c-3 -7 -4 -285 -3 -618 l3 -605 615 0 615 0 0 615 0 615
-613 3 c-485 2 -614 0 -617 -10z m1196 -27 c3 0 5 -263 5 -583 l-1 -583 -585
0 -585 0 -1 580 c0 319 0 582 2 585 2 5 1147 6 1165 1z"/>
<path d="M85 1149 c-3 -8 -4 -153 -2 -324 l2 -310 175 1 175 0 61 32 c73 37
131 93 164 159 34 65 35 186 2 255 -30 64 -95 125 -172 162 -63 30 -70 31
-232 34 -135 4 -169 2 -173 -9z m380 -54 c77 -37 160 -118 154 -151 0 -4 4
-10 10 -13 19 -12 20 -133 2 -184 -23 -67 -81 -131 -148 -164 -56 -27 -64 -28
-208 -28 l-150 0 -1 284 -1 283 151 -4 c121 -3 159 -8 191 -23z"/>
<path d="M795 1148 c-2 -7 -3 -152 -2 -323 l2 -310 174 -3 c164 -2 209 4 187
25 -4 5 -78 8 -164 8 l-157 1 -1 132 c0 156 -18 141 171 141 163 -1 157 -1
153 14 -3 9 -49 13 -164 17 l-159 5 0 130 0 130 163 3 c148 2 163 4 160 20 -3
15 -22 17 -181 20 -137 2 -178 0 -182 -10z"/>
<path d="M88 469 c-6 -4 -7 -12 -4 -18 5 -8 160 -11 542 -11 468 0 534 2 534
15 0 8 -3 16 -7 16 -31 5 -1057 3 -1065 -2z"/>
<path d="M85 398 c-2 -7 -3 -80 -2 -163 2 -133 4 -150 19 -153 16 -3 18 10 20
130 l3 133 30 -34 c31 -36 153 -168 193 -209 42 -43 47 -28 47 141 1 116 -3
158 -12 161 -21 8 -24 -10 -25 -134 -1 -66 -3 -120 -6 -120 -5 0 -42 39 -155
163 -88 97 -104 108 -112 85z"/>
<path d="M453 401 c-6 -3 -10 -73 -10 -164 l0 -157 98 0 c92 0 117 8 87 26 -7
5 -43 7 -80 6 l-67 -2 2 57 2 58 73 3 c55 2 72 6 72 17 0 12 -16 15 -74 15
l-73 0 0 58 1 57 79 0 79 0 30 -75 c68 -172 91 -220 103 -220 7 0 36 56 66
130 29 71 56 127 60 122 3 -4 16 -34 29 -67 44 -114 80 -185 92 -185 11 0 133
289 133 315 0 6 -7 10 -15 10 -13 0 -110 -212 -110 -242 0 -36 -22 -2 -60 95
-23 59 -48 117 -56 129 -14 23 -40 22 -41 0 -1 -7 -19 -57 -42 -111 -23 -55
-41 -105 -41 -113 0 -38 -23 -1 -65 104 -26 65 -51 122 -56 128 -10 10 -201
16 -216 6z"/>
</g>
</svg>
